<svg id="visual" viewBox="0 0 900 600" width="900" height="600" xmlns="http://www.w3.org/2000/svg" xmlns:xlink="http://www.w3.org/1999/xlink" version="1.1" preserveAspectRatio="none"><path d="M665 600L773 600L773 545L629 545L629 491L566 491L566 436L566 436L566 382L800 382L800 327L575 327L575 273L620 273L620 218L701 218L701 164L629 164L629 109L503 109L503 55L566 55L566 0L900 0L900 55L900 55L900 109L900 109L900 164L900 164L900 218L900 218L900 273L900 273L900 327L900 327L900 382L900 382L900 436L900 436L900 491L900 491L900 545L900 545L900 600L900 600Z" fill="#797979"></path><path d="M557 600L584 600L584 545L449 545L449 491L494 491L494 436L404 436L404 382L647 382L647 327L476 327L476 273L440 273L440 218L566 218L566 164L521 164L521 109L386 109L386 55L494 55L494 0L567 0L567 55L504 55L504 109L630 109L630 164L702 164L702 218L621 218L621 273L576 273L576 327L801 327L801 382L567 382L567 436L567 436L567 491L630 491L630 545L774 545L774 600L666 600Z" fill="#5a5a5a"></path><path d="M359 600L179 600L179 545L287 545L287 491L305 491L305 436L152 436L152 382L350 382L350 327L305 327L305 273L296 273L296 218L233 218L233 164L161 164L161 109L233 109L233 55L323 55L323 0L495 0L495 55L387 55L387 109L522 109L522 164L567 164L567 218L441 218L441 273L477 273L477 327L648 327L648 382L405 382L405 436L495 436L495 491L450 491L450 545L585 545L585 600L558 600Z" fill="#3c3c3c"></path><path d="M125 600L98 600L98 545L62 545L62 491L143 491L143 436L62 436L62 382L143 382L143 327L125 327L125 273L71 273L71 218L71 218L71 164L80 164L80 109L53 109L53 55L116 55L116 0L324 0L324 55L234 55L234 109L162 109L162 164L234 164L234 218L297 218L297 273L306 273L306 327L351 327L351 382L153 382L153 436L306 436L306 491L288 491L288 545L180 545L180 600L360 600Z" fill="#212121"></path><path d="M0 600L0 600L0 545L0 545L0 491L0 491L0 436L0 436L0 382L0 382L0 327L0 327L0 273L0 273L0 218L0 218L0 164L0 164L0 109L0 109L0 55L0 55L0 0L117 0L117 55L54 55L54 109L81 109L81 164L72 164L72 218L72 218L72 273L126 273L126 327L144 327L144 382L63 382L63 436L144 436L144 491L63 491L63 545L99 545L99 600L126 600Z" fill="#000000"></path></svg>